<?xml version="1.0" encoding="utf-8"?>
<!-- Generator: Adobe Illustrator 20.1.0, SVG Export Plug-In . SVG Version: 6.00 Build 0)  -->
<svg version="1.1" id="Layer_1" xmlns="http://www.w3.org/2000/svg" xmlns:xlink="http://www.w3.org/1999/xlink" x="0px" y="0px"
	 viewBox="0 0 155 155" style="enable-background:new 0 0 155 155;" xml:space="preserve">
<style type="text/css">
	.st0{fill:#2D8382;}
</style>
<g>
	<path class="st0" d="M77.5,0.5c-42.5,0-77,34.5-77,77s34.5,77,77,77s77-34.5,77-77S120,0.5,77.5,0.5z M77.5,151.5
		c-40.8,0-74-33.2-74-74s33.2-74,74-74s74,33.2,74,74S118.3,151.5,77.5,151.5z"/>
	<path class="st0" d="M114.7,59.9H95.4v-7.6c0-2.8-2.3-5.2-5.2-5.2H64.8c-2.8,0-5.2,2.3-5.2,5.2v7.6H40.3c-0.4,0-0.8,0.3-0.8,0.8
		v45.7c0,0.4,0.3,0.8,0.8,0.8h74.5c0.4,0,0.8-0.3,0.8-0.8V60.7C115.5,60.3,115.2,59.9,114.7,59.9z M62.6,52.3c0-1.2,1-2.2,2.2-2.2
		h25.4c1.2,0,2.2,1,2.2,2.2v7.6H62.6V52.3z M114,105.6H41V74.2l36.3,10c0.1,0,0.1,0,0.2,0s0.1,0,0.2,0l36.3-10V105.6z M114,72.6
		L77.5,82.7L41,72.6V61.4h73V72.6z"/>
</g>
</svg>
