<?xml version="1.0" encoding="UTF-8"?>
<svg width="993px" height="992px" viewBox="0 0 993 992" version="1.1" xmlns="http://www.w3.org/2000/svg" xmlns:xlink="http://www.w3.org/1999/xlink">
    <!-- Generator: Sketch 46.1 (44463) - http://www.bohemiancoding.com/sketch -->
    <title>75</title>
    <desc>Created with Sketch.</desc>
    <defs></defs>
    <g id="Page-1" stroke="none" stroke-width="1" fill="none" fill-rule="evenodd">
        <g id="75">
            <g id="Shape" fill-rule="nonzero">
                <path d="M351,133.7 L310.2,35.3 L302.8,38.4 L343.6,136.8 C346.1,135.7 348.5,134.7 351,133.7 Z" fill="#146F6E"></path>
                <path d="M283.3,169.1 L224.1,80.5 L217.4,84.9 L276.6,173.5 C278.9,172 281.1,170.5 283.3,169.1 Z" fill="#146F6E"></path>
                <path d="M317.4,149.1 L267.5,55 L260.4,58.7 L310.3,152.8 C312.7,151.6 315.1,150.3 317.4,149.1 Z" fill="#146F6E"></path>
                <path d="M463.5,107 L453.4,0.9 L445.4,1.7 L455.5,107.8 C458.1,107.5 460.8,107.3 463.5,107 Z" fill="#146F6E"></path>
                <path d="M388.4,120.8 L357.8,18.8 L350.1,21.1 L380.7,123.1 C383.2,122.3 385.8,121.6 388.4,120.8 Z" fill="#146F6E"></path>
                <path d="M253.4,190.7 L186,108.1 L179.8,113.2 L247.2,195.8 C249.3,194.1 251.3,192.4 253.4,190.7 Z" fill="#146F6E"></path>
                <path d="M424.3,112.3 L403.5,7.8 L395.7,9.4 L416.5,113.9 C419.1,113.3 421.7,112.8 424.3,112.3 Z" fill="#146F6E"></path>
                <path d="M223.8,216.9 L148.4,141.5 L142.7,147.2 L218.1,222.6 C220,220.7 221.9,218.8 223.8,216.9 Z" fill="#146F6E"></path>
                <path d="M115.2,415.2 L10.7,394.4 L9.1,402.2 L113.6,423 C114.1,420.4 114.6,417.8 115.2,415.2 Z" fill="#146F6E"></path>
                <path d="M125.2,376.9 L23.4,345.7 L21.1,353.3 L122.9,384.6 C123.6,382 124.4,379.5 125.2,376.9 Z" fill="#146F6E"></path>
                <path d="M138,342.3 L39.6,301.5 L36.5,308.9 L134.9,349.7 C136,347.2 137,344.8 138,342.3 Z" fill="#146F6E"></path>
                <path d="M109.3,451.6 L3.3,440.8 L2.5,448.8 L108.5,459.6 C108.8,456.9 109,454.3 109.3,451.6 Z" fill="#146F6E"></path>
                <path d="M174.8,275.4 L86.2,216.2 L81.8,222.9 L170.4,282.1 C171.8,279.8 173.3,277.6 174.8,275.4 Z" fill="#146F6E"></path>
                <path d="M198.7,244 L116.5,176.1 L111.4,182.3 L193.6,250.2 C195.3,248.1 197,246 198.7,244 Z" fill="#146F6E"></path>
                <path d="M155.4,306.8 L61.6,256.3 L57.8,263.3 L151.6,313.8 C152.8,311.5 154.1,309.2 155.4,306.8 Z" fill="#146F6E"></path>
                <path d="M842.3,316.2 L936.4,266.3 L932.7,259.2 L838.6,309.1 C839.8,311.4 841.1,313.8 842.3,316.2 Z" fill="#FFFFFF"></path>
                <path d="M539.8,108.1 L550.6,2 L542.6,1.2 L531.8,107.2 C534.5,107.5 537.1,107.8 539.8,108.1 Z" fill="#FFFFFF"></path>
                <path d="M857.7,349.7 L956.1,308.9 L953,301.5 L854.6,342.3 C855.7,344.8 856.7,347.2 857.7,349.7 Z" fill="#FFFFFF"></path>
                <path d="M822.4,282 L911,222.8 L906.6,216.1 L818,275.3 C819.4,277.6 820.9,279.8 822.4,282 Z" fill="#FFFFFF"></path>
                <path d="M800.7,252.1 L883.3,184.7 L878.2,178.5 L795.6,245.9 C797.4,248 799,250.1 800.7,252.1 Z" fill="#FFFFFF"></path>
                <path d="M870.6,387.1 L972.6,356.5 L970.3,348.8 L868.3,379.4 C869.1,382 869.8,384.5 870.6,387.1 Z" fill="#FFFFFF"></path>
                <path d="M884.4,462.2 L990.5,452.1 L989.7,444.1 L883.6,454.2 C883.9,456.9 884.2,459.5 884.4,462.2 Z" fill="#FFFFFF"></path>
                <path d="M879.1,423 L983.6,402.2 L982,394.4 L877.5,415.2 C878.1,417.8 878.6,420.4 879.1,423 Z" fill="#FFFFFF"></path>
                <path d="M106.9,495.1 C106.9,493.8 106.9,492.4 106.9,491.1 L0.3,491.1 L0.3,499.1 L107,499.1 C107,497.7 106.9,496.4 106.9,495.1 Z" fill="#FFFFFF"></path>
                <path d="M614.5,123.9 L645.8,22.1 L638.2,19.8 L606.9,121.6 C609.4,122.3 611.9,123.1 614.5,123.9 Z" fill="#FFFFFF"></path>
                <path d="M774.5,222.6 L849.9,147.2 L844.2,141.5 L768.8,216.9 C770.8,218.8 772.6,220.7 774.5,222.6 Z" fill="#FFFFFF"></path>
                <path d="M576.3,113.9 L597,9.4 L589.2,7.8 L568.4,112.3 C571,112.8 573.6,113.3 576.3,113.9 Z" fill="#FFFFFF"></path>
                <path d="M649.1,136.8 L689.9,38.4 L682.5,35.3 L641.7,133.7 C644.2,134.7 646.6,135.7 649.1,136.8 Z" fill="#FFFFFF"></path>
                <path d="M747.5,197.4 L815.4,115.2 L809.2,110.1 L741.3,192.3 C743.4,194 745.4,195.7 747.5,197.4 Z" fill="#FFFFFF"></path>
                <path d="M716,173.5 L775.2,84.9 L768.5,80.5 L709.3,169.1 C711.6,170.5 713.8,172 716,173.5 Z" fill="#FFFFFF"></path>
                <path d="M684.6,154.1 L735.1,60.3 L728.1,56.5 L677.6,150.3 C679.9,151.6 682.3,152.8 684.6,154.1 Z" fill="#FFFFFF"></path>
                <path d="M794,746.2 L876.2,814.1 L881.3,807.9 L799.1,740 C797.4,742.1 795.7,744.2 794,746.2 Z" fill="#FFFFFF"></path>
                <path d="M817.9,714.7 L906.5,773.9 L910.9,767.2 L822.3,708 C820.9,710.3 819.4,712.5 817.9,714.7 Z" fill="#FFFFFF"></path>
                <path d="M877.5,575 L982,595.8 L983.6,588 L879.1,567.2 C878.6,569.8 878.1,572.4 877.5,575 Z" fill="#FFFFFF"></path>
                <path d="M885.7,491.1 C885.7,492.4 885.7,493.8 885.7,495.1 C885.7,496.4 885.7,497.8 885.7,499.1 L992.3,499.1 L992.3,491.1 L885.7,491.1 Z" fill="#FFFFFF"></path>
                <path d="M108.3,528 L2.2,538.1 L3,546.1 L109.1,536 C108.8,533.3 108.5,530.6 108.3,528 Z" fill="#FFFFFF"></path>
                <path d="M837.3,683.3 L931.1,733.8 L934.9,726.8 L841.1,676.3 C839.9,678.6 838.6,681 837.3,683.3 Z" fill="#FFFFFF"></path>
                <path d="M854.7,647.8 L953.1,688.6 L956.2,681.2 L857.8,640.4 C856.7,642.9 855.7,645.4 854.7,647.8 Z" fill="#FFFFFF"></path>
                <path d="M867.5,613.2 L969.3,644.5 L971.6,636.9 L869.8,605.6 C869.1,608.1 868.3,610.7 867.5,613.2 Z" fill="#FFFFFF"></path>
                <path d="M883.4,538.5 L989.4,549.3 L990.2,541.3 L884.2,530.5 C883.9,533.2 883.6,535.9 883.4,538.5 Z" fill="#FFFFFF"></path>
                <path d="M150.4,674 L56.3,723.9 L60,731 L154.1,681.1 C152.9,678.7 151.6,676.4 150.4,674 Z" fill="#FFFFFF"></path>
                <path d="M170.3,708.1 L81.7,767.3 L86.1,774 L174.7,714.8 C173.3,712.5 171.8,710.3 170.3,708.1 Z" fill="#FFFFFF"></path>
                <path d="M113.6,567.1 L9.1,587.9 L10.7,595.7 L115.2,575 C114.6,572.4 114.1,569.8 113.6,567.1 Z" fill="#FFFFFF"></path>
                <path d="M135,640.4 L36.6,681.2 L39.7,688.6 L138.1,647.8 C137,645.4 136,642.9 135,640.4 Z" fill="#FFFFFF"></path>
                <path d="M122.1,603.1 L20.1,633.7 L22.4,641.4 L124.4,610.8 C123.6,608.2 122.9,605.6 122.1,603.1 Z" fill="#FFFFFF"></path>
                <path d="M641.7,859 L682.5,957.4 L689.9,954.3 L649.1,855.9 C646.6,857 644.2,858 641.7,859 Z" fill="#FFFFFF"></path>
                <path d="M709.4,823.7 L768.6,912.3 L775.3,907.9 L716,819.2 C713.8,820.7 711.6,822.2 709.4,823.7 Z" fill="#FFFFFF"></path>
                <path d="M675.3,843.6 L725.2,937.7 L732.3,934 L682.4,839.9 C680,841.1 677.6,842.4 675.3,843.6 Z" fill="#FFFFFF"></path>
                <path d="M529.2,885.7 L539.3,991.8 L547.3,991 L537.2,884.9 C534.6,885.2 531.9,885.4 529.2,885.7 Z" fill="#FFFFFF"></path>
                <path d="M604.3,871.9 L634.9,973.9 L642.6,971.6 L612,869.6 C609.5,870.4 606.9,871.1 604.3,871.9 Z" fill="#FFFFFF"></path>
                <path d="M739.3,802 L806.7,884.6 L812.9,879.5 L745.5,796.9 C743.4,798.6 741.4,800.3 739.3,802 Z" fill="#FFFFFF"></path>
                <path d="M568.4,880.4 L589.2,984.9 L597,983.3 L576.2,878.8 C573.6,879.4 571,879.9 568.4,880.4 Z" fill="#FFFFFF"></path>
                <path d="M768.9,775.8 L844.3,851.2 L850,845.5 L774.6,770.1 C772.6,772 770.8,773.9 768.9,775.8 Z" fill="#FFFFFF"></path>
                <path d="M452.9,884.6 L442.1,990.6 L450.1,991.4 L460.9,885.4 C458.2,885.2 455.6,884.9 452.9,884.6 Z" fill="#FFFFFF"></path>
                <path d="M192,740.6 L109.4,808 L114.5,814.2 L197.1,746.8 C195.3,744.7 193.7,742.6 192,740.6 Z" fill="#FFFFFF"></path>
                <path d="M378.2,868.8 L347,970.6 L354.6,972.9 L385.9,871.1 C383.3,870.4 380.8,869.6 378.2,868.8 Z" fill="#FFFFFF"></path>
                <path d="M218.2,770.1 L142.8,845.5 L148.5,851.2 L223.9,775.8 C221.9,773.9 220,772 218.2,770.1 Z" fill="#FFFFFF"></path>
                <path d="M416.4,878.8 L395.6,983.3 L403.4,984.9 L424.2,880.4 C421.7,879.9 419.1,879.4 416.4,878.8 Z" fill="#FFFFFF"></path>
                <path d="M343.6,855.9 L302.8,954.3 L310.2,957.4 L351,859 C348.5,858 346.1,857 343.6,855.9 Z" fill="#FFFFFF"></path>
                <path d="M245.2,795.3 L177.3,877.5 L183.5,882.6 L251.4,800.4 C249.3,798.7 247.3,797 245.2,795.3 Z" fill="#FFFFFF"></path>
                <path d="M276.7,819.2 L217.5,907.8 L224.2,912.2 L283.4,823.6 C281.1,822.2 278.9,820.7 276.7,819.2 Z" fill="#FFFFFF"></path>
                <path d="M308.1,838.6 L257.6,932.4 L264.6,936.2 L315.1,842.4 C312.8,841.1 310.4,839.9 308.1,838.6 Z" fill="#FFFFFF"></path>
                <path d="M500.3,991.8 L500.3,887 C499,887 497.6,887 496.3,887 C495,887 493.6,887 492.3,887 L492.3,991.8 L500.3,991.8 Z" fill="#FFFFFF"></path>
                <path d="M492.3,0.8 L492.3,105.7 C493.6,105.7 495,105.7 496.3,105.7 C497.6,105.7 499,105.7 500.3,105.7 L500.3,0.8 L492.3,0.8 Z" fill="#FFFFFF"></path>
            </g>
            <g id="Text" transform="translate(324.000000, 347.000000)" fill="#ED7401">
                <text id="75" font-family="Helvetica-Light, Helvetica" font-size="174" font-weight="300" letter-spacing="1.90312505">
                    <tspan x="0" y="202">75</tspan>
                </text>
                <text id="ferdig" font-family="Helvetica" font-size="64" font-weight="normal" letter-spacing="0.700000048">
                    <tspan x="79" y="283">ferdig</tspan>
                </text>
                <text id="%" font-family="Helvetica" font-size="144" font-weight="normal" letter-spacing="1.575">
                    <tspan x="192" y="140">%</tspan>
                </text>
            </g>
        </g>
    </g>
</svg>