<?xml version="1.0" encoding="utf-8"?>
<!-- Generator: Adobe Illustrator 20.1.0, SVG Export Plug-In . SVG Version: 6.00 Build 0)  -->
<svg version="1.1" id="Layer_1" xmlns="http://www.w3.org/2000/svg" xmlns:xlink="http://www.w3.org/1999/xlink" x="0px" y="0px"
	 viewBox="0 0 995 995" style="enable-background:new 0 0 995 995;" xml:space="preserve">
<style type="text/css">
	.st0{fill:#FFFFFF;}
	.st1{fill:#146F6E;}
</style>
<path class="st0" d="M352,134.7l-40.8-98.4l-7.4,3.1l40.8,98.4C347.1,136.7,349.5,135.7,352,134.7z"/>
<path class="st0" d="M284.3,170.1l-59.2-88.6l-6.7,4.4l59.2,88.6C279.9,173,282.1,171.5,284.3,170.1z"/>
<path class="st0" d="M318.4,150.1L268.5,56l-7.1,3.7l49.9,94.1C313.7,152.6,316.1,151.3,318.4,150.1z"/>
<path class="st1" d="M464.5,108L454.4,1.9l-8,0.8l10.1,106.1C459.1,108.5,461.8,108.3,464.5,108z"/>
<path class="st0" d="M389.4,121.8l-30.6-102l-7.7,2.3l30.6,102C384.2,123.3,386.8,122.6,389.4,121.8z"/>
<path class="st0" d="M254.4,191.7l-67.4-82.6l-6.2,5.1l67.4,82.6C250.3,195.1,252.3,193.4,254.4,191.7z"/>
<path class="st1" d="M425.3,113.3L404.5,8.8l-7.8,1.6l20.8,104.5C420.1,114.3,422.7,113.8,425.3,113.3z"/>
<path class="st0" d="M224.8,217.9l-75.4-75.4l-5.7,5.7l75.4,75.4C221,221.7,222.9,219.8,224.8,217.9z"/>
<path class="st0" d="M116.2,416.2L11.7,395.4l-1.6,7.8L114.6,424C115.1,421.4,115.6,418.8,116.2,416.2z"/>
<path class="st0" d="M126.2,377.9L24.4,346.7l-2.3,7.6l101.8,31.3C124.6,383,125.4,380.5,126.2,377.9z"/>
<path class="st0" d="M139,343.3l-98.4-40.8l-3.1,7.4l98.4,40.8C137,348.2,138,345.8,139,343.3z"/>
<path class="st0" d="M110.3,452.6l-106-10.8l-0.8,8l106,10.8C109.8,457.9,110,455.3,110.3,452.6z"/>
<path class="st0" d="M175.8,276.4l-88.6-59.2l-4.4,6.7l88.6,59.2C172.8,280.8,174.3,278.6,175.8,276.4z"/>
<path class="st0" d="M199.7,245l-82.2-67.9l-5.1,6.2l82.2,67.9C196.3,249.1,198,247,199.7,245z"/>
<path class="st0" d="M156.4,307.8l-93.8-50.5l-3.8,7l93.8,50.5C153.8,312.5,155.1,310.2,156.4,307.8z"/>
<path class="st0" d="M843.3,317.2l94.1-49.9l-3.7-7.1l-94.1,49.9C840.8,312.4,842.1,314.8,843.3,317.2z"/>
<path class="st0" d="M540.8,109.1L551.6,3l-8-0.8l-10.8,106C535.5,108.5,538.1,108.8,540.8,109.1z"/>
<path class="st0" d="M858.7,350.7l98.4-40.8l-3.1-7.4l-98.4,40.8C856.7,345.8,857.7,348.2,858.7,350.7z"/>
<path class="st0" d="M823.4,283l88.6-59.2l-4.4-6.7l-88.6,59.2C820.4,278.6,821.9,280.8,823.4,283z"/>
<path class="st0" d="M801.7,253.1l82.6-67.4l-5.1-6.2l-82.6,67.4C798.4,249,800,251.1,801.7,253.1z"/>
<path class="st0" d="M871.6,388.1l102-30.6l-2.3-7.7l-102,30.6C870.1,383,870.8,385.5,871.6,388.1z"/>
<path class="st0" d="M885.4,463.2l106.1-10.1l-0.8-8l-106.1,10.1C884.9,457.9,885.2,460.5,885.4,463.2z"/>
<path class="st0" d="M880.1,424l104.5-20.8l-1.6-7.8l-104.5,20.8C879.1,418.8,879.6,421.4,880.1,424z"/>
<path class="st0" d="M107.9,496.1c0-1.3,0-2.7,0-4H1.3v8H108C108,498.7,107.9,497.4,107.9,496.1z"/>
<path class="st0" d="M615.5,124.9l31.3-101.8l-7.6-2.3l-31.3,101.8C610.4,123.3,612.9,124.1,615.5,124.9z"/>
<path class="st0" d="M775.5,223.6l75.4-75.4l-5.7-5.7l-75.4,75.4C771.8,219.8,773.6,221.7,775.5,223.6z"/>
<path class="st0" d="M577.3,114.9L598,10.4l-7.8-1.6l-20.8,104.5C572,113.8,574.6,114.3,577.3,114.9z"/>
<path class="st0" d="M650.1,137.8l40.8-98.4l-7.4-3.1l-40.8,98.4C645.2,135.7,647.6,136.7,650.1,137.8z"/>
<path class="st0" d="M748.5,198.4l67.9-82.2l-6.2-5.1l-67.9,82.2C744.4,195,746.4,196.7,748.5,198.4z"/>
<path class="st0" d="M717,174.5l59.2-88.6l-6.7-4.4l-59.2,88.6C712.6,171.5,714.8,173,717,174.5z"/>
<path class="st0" d="M685.6,155.1l50.5-93.8l-7-3.8l-50.5,93.8C680.9,152.6,683.3,153.8,685.6,155.1z"/>
<path class="st0" d="M795,747.2l82.2,67.9l5.1-6.2L800.1,741C798.4,743.1,796.7,745.2,795,747.2z"/>
<path class="st0" d="M818.9,715.7l88.6,59.2l4.4-6.7l-88.6-59.2C821.9,711.3,820.4,713.5,818.9,715.7z"/>
<path class="st0" d="M878.5,576L983,596.8l1.6-7.8l-104.5-20.8C879.6,570.8,879.1,573.4,878.5,576z"/>
<path class="st0" d="M886.7,492.1c0,1.3,0,2.7,0,4s0,2.7,0,4h106.6v-8H886.7z"/>
<path class="st0" d="M109.3,529L3.2,539.1l0.8,8l106.1-10.1C109.8,534.3,109.5,531.6,109.3,529z"/>
<path class="st0" d="M838.3,684.3l93.8,50.5l3.8-7l-93.8-50.5C840.9,679.6,839.6,682,838.3,684.3z"/>
<path class="st0" d="M855.7,648.8l98.4,40.8l3.1-7.4l-98.4-40.8C857.7,643.9,856.7,646.4,855.7,648.8z"/>
<path class="st0" d="M868.5,614.2l101.8,31.3l2.3-7.6l-101.8-31.3C870.1,609.1,869.3,611.7,868.5,614.2z"/>
<path class="st0" d="M884.4,539.5l106,10.8l0.8-8l-106-10.8C884.9,534.2,884.6,536.9,884.4,539.5z"/>
<path class="st0" d="M151.4,675l-94.1,49.9L61,732l94.1-49.9C153.9,679.7,152.6,677.4,151.4,675z"/>
<path class="st0" d="M171.3,709.1l-88.6,59.2l4.4,6.7l88.6-59.2C174.3,713.5,172.8,711.3,171.3,709.1z"/>
<path class="st0" d="M114.6,568.1L10.1,588.9l1.6,7.8L116.2,576C115.6,573.4,115.1,570.8,114.6,568.1z"/>
<path class="st0" d="M136,641.4l-98.4,40.8l3.1,7.4l98.4-40.8C138,646.4,137,643.9,136,641.4z"/>
<path class="st0" d="M123.1,604.1l-102,30.6l2.3,7.7l102-30.6C124.6,609.2,123.9,606.6,123.1,604.1z"/>
<path class="st0" d="M642.7,860l40.8,98.4l7.4-3.1l-40.8-98.4C647.6,858,645.2,859,642.7,860z"/>
<path class="st0" d="M710.4,824.7l59.2,88.6l6.7-4.4L717,820.2C714.8,821.7,712.6,823.2,710.4,824.7z"/>
<path class="st0" d="M676.3,844.6l49.9,94.1l7.1-3.7l-49.9-94.1C681,842.1,678.6,843.4,676.3,844.6z"/>
<path class="st0" d="M530.2,886.7l10.1,106.1l8-0.8l-10.1-106.1C535.6,886.2,532.9,886.4,530.2,886.7z"/>
<path class="st0" d="M605.3,872.9l30.6,102l7.7-2.3l-30.6-102C610.5,871.4,607.9,872.1,605.3,872.9z"/>
<path class="st0" d="M740.3,803l67.4,82.6l6.2-5.1l-67.4-82.6C744.4,799.6,742.4,801.3,740.3,803z"/>
<path class="st0" d="M569.4,881.4l20.8,104.5l7.8-1.6l-20.8-104.5C574.6,880.4,572,880.9,569.4,881.4z"/>
<path class="st0" d="M769.9,776.8l75.4,75.4l5.7-5.7l-75.4-75.4C773.6,773,771.8,774.9,769.9,776.8z"/>
<path class="st0" d="M453.9,885.6l-10.8,106l8,0.8l10.8-106C459.2,886.2,456.6,885.9,453.9,885.6z"/>
<path class="st0" d="M193,741.6l-82.6,67.4l5.1,6.2l82.6-67.4C196.3,745.7,194.7,743.6,193,741.6z"/>
<path class="st0" d="M379.2,869.8L348,971.6l7.6,2.3l31.3-101.8C384.3,871.4,381.8,870.6,379.2,869.8z"/>
<path class="st0" d="M219.2,771.1l-75.4,75.4l5.7,5.7l75.4-75.4C222.9,774.9,221,773,219.2,771.1z"/>
<path class="st0" d="M417.4,879.8l-20.8,104.5l7.8,1.6l20.8-104.5C422.7,880.9,420.1,880.4,417.4,879.8z"/>
<path class="st0" d="M344.6,856.9l-40.8,98.4l7.4,3.1L352,860C349.5,859,347.1,858,344.6,856.9z"/>
<path class="st0" d="M246.2,796.3l-67.9,82.2l6.2,5.1l67.9-82.2C250.3,799.7,248.3,798,246.2,796.3z"/>
<path class="st0" d="M277.7,820.2l-59.2,88.6l6.7,4.4l59.2-88.6C282.1,823.2,279.9,821.7,277.7,820.2z"/>
<path class="st0" d="M309.1,839.6l-50.5,93.8l7,3.8l50.5-93.8C313.8,842.1,311.4,840.9,309.1,839.6z"/>
<path class="st0" d="M501.3,992.8V888c-1.3,0-2.7,0-4,0s-2.7,0-4,0v104.8H501.3z"/>
<path class="st0" d="M493.3,1.8v104.9c1.3,0,2.7,0,4,0s2.7,0,4,0V1.8H493.3z"/>
</svg>
