<?xml version="1.0" encoding="utf-8"?>
<!-- Generator: Adobe Illustrator 20.1.0, SVG Export Plug-In . SVG Version: 6.00 Build 0)  -->
<svg version="1.1" id="Layer_1" xmlns="http://www.w3.org/2000/svg" xmlns:xlink="http://www.w3.org/1999/xlink" x="0px" y="0px"
	 viewBox="0 0 155 155" style="enable-background:new 0 0 155 155;" xml:space="preserve">
<style type="text/css">
	.st0{fill:#2D8382;}
</style>
<g>
	<path class="st0" d="M77.5,0.5c-42.5,0-77,34.5-77,77s34.5,77,77,77s77-34.5,77-77S120,0.5,77.5,0.5z M77.5,151.5
		c-40.8,0-74-33.2-74-74s33.2-74,74-74s74,33.2,74,74S118.3,151.5,77.5,151.5z"/>
	<path class="st0" d="M124.5,62.9L77.8,45.1c-0.2-0.1-0.4-0.1-0.5,0L30.5,62.9C30.2,63,30,63.3,30,63.6c0,0.3,0.2,0.6,0.5,0.7
		l11.9,4.5v49.6c0,1.1,0.9,2,2,2s2-0.9,2-2V70.3l3.9,1.5v18.8c0,0.3,0.2,0.6,0.4,0.7c7.2,3.4,16.7,5.2,26.8,5.2
		c10.1,0,19.6-1.9,26.8-5.2c0.3-0.1,0.4-0.4,0.4-0.7l0-18.7l19.8-7.5c0.3-0.1,0.5-0.4,0.5-0.7S124.8,63,124.5,62.9z M103.2,90.1
		c-6.9,3.1-16,4.9-25.7,4.9c-9.7,0-18.8-1.7-25.7-4.9V72.3l25.4,9.7c0.2,0.1,0.4,0.1,0.5,0l25.5-9.7L103.2,90.1z M77.5,80.5
		L45.7,68.4c0,0,0,0,0,0l-12.8-4.8l44.6-17l44.7,17L77.5,80.5z"/>
</g>
</svg>
